<?xml  version="1.0" encoding="UTF-8"?>
<!DOCTYPE svg PUBLIC "-//W3C//DTD SVG 1.0//EN" "http://www.w3.org/TR/2001/REC-SVG-20010904/DTD/svg10.dtd" >
<svg xmlns="http://www.w3.org/2000/svg" >
<metadata>
<version>1.0</version>
<id><![CDATA[Proxima N W01 X Cd Black]]></id>
<vendor>Monotype Imaging Inc.</vendor>
<credits>
<name>Fonts.com WebFonts</name>
<URL>http://webfonts.fonts.com</URL>
<role>Home of the Web fonts</role>
</credits>
<license>
<URL>http://webfonts.fonts.com/Legal</URL>
</license>
<copyright><![CDATA[Copyright (c) Mark Simonson, 2005. All rights reserved.]]></copyright>
<trademark><![CDATA[Proxima Nova is a trademark of Mark Simonson.]]></trademark>
<licensee>
<name></name>
</licensee>
</metadata>
<defs >
<font horiz-adv-x="417" id="fd5c90e8-f534-420d-9a5f-55d99529e14d">
<font-face font-family="" panose-1="2 0 5 6 3 0 0 2 0 4" ascent="741" descent="-259" units-per-em="1000" alphabetic="0">
</font-face>
<missing-glyph horiz-adv-x="0" />

<glyph unicode="&#xA;" />
<glyph unicode="&#xD;" horiz-adv-x="0" />
<glyph unicode=" " horiz-adv-x="154" />
<glyph unicode="!" horiz-adv-x="270" d="M65 235L40 667H230L206 235H65ZM135 -12Q115 -12 98 -5T68 16T47 46T39 83Q39 103 46 120T67 151T98 172T135 180Q154 180 171 173T202 152T223 121T231 83Q231 63 224 46T203 16T172 -4T135 -12Z"  />
<glyph unicode="&quot;" horiz-adv-x="442" d="M87 355Q73 417 62 467Q57 488 53 509T46 548T40 578T38 595Q38 629 62 653T120 677Q154 677 178 653T202 595Q202 591 200 579T194 549T186 510T177 467Q166 417 153 355H87ZM290 355Q276 417 265 467Q260 488 256 509T249 548T243 578T241 595Q241 629 264 653T323 677Q356 677 380 653T404 595Q404 591 402 579T396 549T388 510T379 467Q368 417 355 355H290Z"  />
<glyph unicode="#" horiz-adv-x="487" d="M192 0L231 163H176L139 0H26L64 163H14L37 260H87L121 406H69L90 502H143L181 667H294L256 502H310L347 667H460L422 502H473L452 406H400L365 260H420L397 163H342L305 0H192ZM287 406H233L200 260H253L287 406Z"  />
<glyph unicode="$" horiz-adv-x="435" d="M166 -10Q115 -5 76 12T4 59L75 197Q98 170 130 157T193 144Q216 144 228 156T240 187Q240 208 224 222T184 251T132 281T79 321T39 382T23 471Q23 502 32 533T59 590T103 636T166 667V768H280V675Q318 670 352 655T412 617L348 481Q326 503 301 512T248 522Q226 522 215 510T203 481Q203 461 219 447T259 419T311 387T363 346T403 286T419 200Q419 125 382 72T280 -1V-100H166V-10Z"  />
<glyph unicode="%" horiz-adv-x="604" d="M151 342Q119 342 94 355T50 390T22 443T12 509Q12 544 22 575T50 628T93 664T151 677Q183 677 208 664T252 629T279 575T289 509Q289 474 280 444T252 391T209 355T151 342ZM130 0L414 667H475L190 0H130ZM454 -12Q422 -12 396 1T352 36T325 89T315 154Q315 189 324 220T352 273T396 309T454 322Q486 322 511 309T555 274T582 220T592 154Q592 119 583 89T555 37T512 1T454 -12ZM151 437Q169 437 180 455T191 509Q191 546 180 564T151 583Q133 583 122 565T111 509Q111 473 122 455T151 437ZM454 82Q472 82 483 100T494 154Q494 192 483 210T454 228Q436 228 425 210T414 154Q414 119 425 101T454 82Z"  />
<glyph unicode="&amp;" horiz-adv-x="495" d="M344 0L324 30Q295 10 262 -1T190 -12Q153 -12 122 1T67 39T30 100T16 184Q16 220 25 249T49 301T84 342T125 376Q109 413 99 446T89 508Q89 545 101 576T136 629T187 664T251 677Q284 677 312 665T362 632T396 583T409 522Q409 487 398 461T370 414T330 376T285 343L311 298L335 258Q343 282 349 306T361 351L484 293Q470 248 454 208T415 132L507 0H344ZM227 110Q246 110 263 124Q252 142 241 160T220 196L186 255Q170 228 170 195Q170 180 174 165T186 137T204 118T227 110ZM224 508Q224 495 227 480T236 448Q254 463 265 479T276 517Q276 541 269 553T251 566Q236 566 230 552T224 508Z"  />
<glyph unicode="&apos;" horiz-adv-x="241" d="M87 355Q73 417 62 467Q57 488 53 509T46 548T40 578T38 595Q38 629 62 653T120 677Q154 677 178 653T202 595Q202 591 200 579T194 549T186 510T177 467Q166 417 153 355H87Z"  />
<glyph unicode="(" horiz-adv-x="306" d="M167 -199Q107 -96 77 13T47 243Q47 364 77 473T167 685L284 633Q252 544 235 447T218 243Q218 138 235 40T284 -146L167 -199Z"  />
<glyph unicode=")" horiz-adv-x="306" d="M22 -146Q54 -58 71 40T88 243Q88 349 71 446T22 633L140 685Q199 582 229 473T259 243Q259 122 229 13T140 -199L22 -146Z"  />
<glyph unicode="*" horiz-adv-x="338" d="M132 353L137 460L47 403L11 466L105 515L11 564L47 627L137 570L132 677H206L201 570L290 627L327 564L233 515L327 466L290 403L201 460L206 353H132Z"  />
<glyph unicode="+" horiz-adv-x="388" d="M245 291V153H142V291H29V384H142V514H245V384H359V291H245Z"  />
<glyph unicode="&#x2c;" horiz-adv-x="270" d="M236 62Q236 -1 205 -53T120 -143L55 -90Q67 -84 80 -74T105 -50T126 -23T140 6Q132 2 117 2Q85 2 62 25T39 86Q39 105 46 122T66 152T96 172T132 180Q153 180 171 172T204 149T227 112T236 62Z"  />
<glyph unicode="-" horiz-adv-x="247" d="M30 176V308H217V176H30Z"  />
<glyph unicode="." horiz-adv-x="270" d="M134 -12Q114 -12 97 -5T67 16T47 47T39 84Q39 103 46 120T67 151T97 172T134 180Q153 180 170 173T201 152T222 121T230 84Q230 64 223 47T202 17T171 -4T134 -12Z"  />
<glyph unicode="/" horiz-adv-x="254" d="M0 -20L147 687H254L107 -20H0Z"  />
<glyph unicode="0" horiz-adv-x="495" d="M248 -12Q191 -12 148 16T76 91T33 201T18 333Q18 402 32 464T75 574T147 649T248 677Q305 677 348 650T419 575T462 465T477 333Q477 264 463 202T420 92T348 16T248 -12ZM248 144Q263 144 272 154T287 186T295 245T297 333Q297 385 295 421T288 479T273 511T248 521Q233 521 223 512T208 480T200 421T198 333Q198 281 200 245T207 187T223 154T248 144Z"  />
<glyph unicode="1" horiz-adv-x="405" d="M187 0V442L102 355L2 459L212 667H364V0H187Z"  />
<glyph unicode="2" horiz-adv-x="491" d="M31 0V146Q89 204 130 246T200 318T246 369T272 405T284 432T287 459Q287 483 272 502T226 521Q195 521 167 505T115 457L9 565Q48 617 103 647T236 677Q287 677 329 662T401 619T447 552T464 464Q464 430 454 399T421 332T361 253T269 154H468V0H31Z"  />
<glyph unicode="3" horiz-adv-x="490" d="M241 -12Q163 -12 104 17T12 94L126 200Q146 174 172 159T233 144Q271 144 285 161T300 201Q300 217 294 228T277 246T253 256T227 259Q214 259 203 259T182 258V415Q188 414 200 414T219 414Q254 414 273 427T293 468Q293 494 277 507T230 521Q204 521 175 509T129 471L20 567Q60 624 117 650T241 677Q289 677 329 666T399 632T445 575T462 494Q462 468 453 443T428 398T390 363T343 344Q372 339 396 325T437 289T463 242T472 186Q472 141 455 104T407 42T334 2T241 -12Z"  />
<glyph unicode="4" horiz-adv-x="495" d="M254 0V120H17V275L226 667H431V274H478V120H431V0H254ZM254 468L159 274H254V468Z"  />
<glyph unicode="5" horiz-adv-x="498" d="M242 -12Q169 -12 113 13T17 94L127 202Q148 175 174 160T230 144Q264 144 282 165T301 218Q301 251 285 271T239 291Q214 291 196 278T164 242L34 271V667H443V513H211V390Q225 413 252 427T312 442Q349 442 379 428T432 386T467 317T480 223Q480 170 464 127T417 53T342 5T242 -12Z"  />
<glyph unicode="6" horiz-adv-x="491" d="M261 -12Q198 -12 152 14T76 87T32 197T18 332Q18 413 37 477T91 585T176 653T286 677Q335 677 377 660T449 613L363 483Q334 521 290 521Q272 521 255 511T225 482T204 436T196 374V369Q211 404 243 423T314 443Q346 443 375 429T426 386T461 317T474 223Q474 169 458 126T412 52T344 5T261 -12ZM250 144Q262 144 271 150T285 167T294 190T297 216Q297 238 293 252T281 276T264 289T247 293Q228 293 216 281T195 250Q196 229 199 210T209 176T225 153T250 144Z"  />
<glyph unicode="7" horiz-adv-x="451" d="M69 0L242 513H14V667H437V545L257 0H69Z"  />
<glyph unicode="8" horiz-adv-x="491" d="M245 -12Q132 -12 75 36T17 174Q17 202 26 229T52 278T89 318T136 344Q89 359 58 400T26 501Q26 548 45 581T94 636T164 667T245 677Q285 677 324 667T395 636T446 582T465 501Q465 441 433 400T354 344Q379 335 400 318T438 279T463 230T473 175Q473 86 415 37T245 -12ZM245 398Q249 400 256 404T272 417T286 436T292 464Q292 492 280 506T245 521Q223 521 211 507T198 464Q198 448 204 437T218 417T234 405T245 398ZM245 144Q265 144 281 157T298 203Q298 222 292 236T276 260T258 275T245 282Q240 281 232 276T215 261T200 237T193 203Q193 171 208 158T245 144Z"  />
<glyph unicode="9" horiz-adv-x="491" d="M205 -11Q157 -11 114 6T42 53L128 183Q157 145 201 145Q217 145 233 153T263 180T286 225T295 291V297Q280 262 248 243T177 223Q145 223 116 237T65 280T30 349T17 443Q17 497 33 540T79 614T147 661T230 678Q293 678 339 651T415 578T459 469T473 334Q473 253 454 189T400 81T315 13T205 -11ZM244 373Q264 373 275 385T296 416Q295 437 292 456T283 490T268 513T243 522Q230 522 221 516T206 499T197 476T194 450Q194 428 198 414T210 390T227 377T244 373Z"  />
<glyph unicode=":" horiz-adv-x="270" d="M134 298Q114 298 97 305T67 326T47 357T39 394Q39 413 46 430T67 461T97 482T134 490Q153 490 170 483T201 462T222 431T230 394Q230 374 223 357T202 327T171 306T134 298ZM134 -12Q114 -12 97 -5T67 16T47 47T39 84Q39 103 46 120T67 151T97 172T134 180Q153 180 170 173T201 152T222 121T230 84Q230 64 223 47T202 17T171 -4T134 -12Z"  />
<glyph unicode=";" horiz-adv-x="270" d="M134 298Q114 298 97 306T67 327T47 357T39 395Q39 414 46 431T67 462T97 482T134 490Q153 490 170 483T201 462T222 432T230 395Q230 375 223 358T202 327T171 306T134 298ZM236 62Q236 -1 205 -53T120 -143L55 -90Q67 -84 80 -74T105 -50T126 -23T140 6Q132 2 117 2Q85 2 62 25T39 86Q39 105 46 122T66 152T96 172T132 180Q153 180 171 172T204 149T227 112T236 62Z"  />
<glyph unicode="&lt;" horiz-adv-x="388" d="M29 278V392L359 520V408L135 334L359 261V150L29 278Z"  />
<glyph unicode="=" horiz-adv-x="388" d="M29 380V473H359V380H29ZM29 194V288H359V194H29Z"  />
<glyph unicode="&gt;" horiz-adv-x="388" d="M29 150V261L252 334L29 408V520L359 392V278L29 150Z"  />
<glyph unicode="?" horiz-adv-x="338" d="M103 216Q91 232 86 255T80 308Q80 345 92 370T119 416T146 453T158 491Q158 506 149 516T125 526Q100 526 83 499L13 606Q46 641 85 659T171 677Q249 677 290 636T332 531Q332 492 315 461T278 404T240 352T223 297Q223 287 226 278T234 260L103 216ZM170 -12Q150 -12 133 -5T103 16T82 47T74 84Q74 103 81 120T102 151T133 172T170 180Q189 180 206 173T237 152T258 121T266 84Q266 64 259 47T238 17T207 -4T170 -12Z"  />
<glyph unicode="@" horiz-adv-x="670" d="M279 -70Q217 -70 172 -50T96 7T50 97T35 214Q35 296 64 373T143 508T260 602T404 638Q453 638 495 622T569 574T617 499T635 400Q635 338 621 282T582 181T523 111T449 85Q414 85 388 101T353 149L351 159Q331 129 304 107T232 85Q214 85 197 91T165 113T143 153T134 218Q134 269 148 318T188 408T250 472T331 497Q361 497 378 481T404 439L414 485H552L504 256Q503 252 502 243T501 230Q501 210 506 200T528 189Q536 189 546 204T566 246T581 312T588 398Q588 492 539 544T401 596Q333 596 274 563T172 477T103 355T78 217Q78 168 89 124T124 45T187 -9T284 -29Q331 -29 367 -15T442 25L465 -7Q420 -37 377 -53T279 -70ZM310 194Q331 194 342 209T362 239L385 353Q382 366 375 377T354 388Q335 388 321 373T297 337T283 290T278 244Q278 223 284 209T310 194Z"  />
<glyph unicode="A" horiz-adv-x="484" d="M309 0L295 93H188L175 0H-6L140 667H343L490 0H309ZM242 475L209 247H275L242 475Z"  />
<glyph unicode="B" horiz-adv-x="502" d="M41 0V667H299Q347 667 380 652T435 613T465 559T475 497Q475 434 445 395T366 344Q392 340 413 326T451 290T475 240T484 181Q484 145 475 112T444 55T390 15T308 0H41ZM249 415Q295 415 295 464Q295 513 249 513H218V415H249ZM253 154Q276 154 290 166T304 208Q304 234 290 247T253 261H218V154H253Z"  />
<glyph unicode="C" horiz-adv-x="467" d="M262 -12Q199 -12 153 13T77 84T33 193T18 333Q18 409 32 472T77 582T153 653T262 678Q311 678 345 660T401 615T437 555T459 492L320 441Q312 479 300 500T262 522Q225 522 212 471T198 333Q198 247 211 196T262 144Q289 144 302 170T321 237L459 187Q452 157 440 122T405 57T348 8T262 -12Z"  />
<glyph unicode="D" horiz-adv-x="524" d="M41 0V667H247Q315 667 364 641T444 570T491 464T506 333Q506 262 492 201T446 96T366 26T248 0H41ZM247 154Q283 154 304 195T326 333Q326 384 321 418T305 474T280 504T247 513H218V154H247Z"  />
<glyph unicode="E" horiz-adv-x="405" d="M41 0V667H377V513H218V415H370V261H218V154H377V0H41Z"  />
<glyph unicode="F" horiz-adv-x="400" d="M41 0V667H377V513H218V415H370V261H218V0H41Z"  />
<glyph unicode="G" horiz-adv-x="495" d="M262 -12Q199 -12 153 13T77 84T33 193T18 333Q18 410 33 473T78 582T154 653T262 678Q302 678 334 664T392 624T433 564T459 492L320 441Q315 473 302 497T262 522Q250 522 239 514T218 485T204 428T198 333Q198 276 203 239T218 181T238 152T262 144Q295 144 311 163V230H250V385H465V84Q425 40 378 14T262 -12Z"  />
<glyph unicode="H" horiz-adv-x="532" d="M314 0V266H218V0H41V667H218V420H314V667H490V0H314Z"  />
<glyph unicode="I" horiz-adv-x="259" d="M41 0V667H218V0H41Z"  />
<glyph unicode="J" horiz-adv-x="375" d="M121 -12Q92 -12 63 -7T9 15L49 160Q59 152 72 148T99 144Q125 144 142 158T159 201V667H336V192Q336 138 321 100T277 37T209 0T121 -12Z"  />
<glyph unicode="K" horiz-adv-x="524" d="M331 0L256 220L218 137V0H41V667H218V397L326 667H518L362 356L529 0H331Z"  />
<glyph unicode="L" horiz-adv-x="396" d="M41 0V667H218V154H377V0H41Z"  />
<glyph unicode="M" horiz-adv-x="675" d="M459 0V321L365 0H310L218 321V0H41V667H260L337 399L418 667H633V0H459Z"  />
<glyph unicode="N" horiz-adv-x="532" d="M326 0L218 277V0H41V667H218L314 407V667H490V0H326Z"  />
<glyph unicode="O" horiz-adv-x="522" d="M261 -12Q199 -12 153 13T77 84T33 193T18 333Q18 409 32 472T77 581T153 652T261 678Q323 678 369 653T445 581T489 472T504 333Q504 257 490 194T445 85T369 14T261 -12ZM261 144Q296 144 310 196T324 333Q324 419 310 470T261 522Q226 522 212 471T198 333Q198 248 212 196T261 144Z"  />
<glyph unicode="P" horiz-adv-x="496" d="M41 0V667H264Q320 667 361 649T428 600T468 529T481 444Q481 400 468 360T429 289T361 240T264 222H218V0H41ZM244 376Q270 376 286 394T302 445Q302 477 286 495T244 513H218V376H244Z"  />
<glyph unicode="Q" horiz-adv-x="523" d="M261 -12Q199 -12 153 13T77 84T33 193T18 333Q18 409 32 472T77 581T153 652T261 678Q323 678 369 653T445 581T489 472T504 333Q504 250 487 183T434 70L457 11L338 -36L325 -3Q295 -12 261 -12ZM268 144L235 230L321 263Q324 294 324 333Q324 419 310 470T261 522Q226 522 212 471T198 333Q198 248 212 196T261 144H268Z"  />
<glyph unicode="R" horiz-adv-x="510" d="M298 0L241 222H218V0H41V667H273Q318 667 356 651T422 605T465 537T481 451Q481 410 474 380T455 327T429 289T402 265L487 0H298ZM244 376Q270 376 286 394T302 444Q302 477 286 495T244 513H218V376H244Z"  />
<glyph unicode="S" horiz-adv-x="437" d="M205 -12Q139 -12 91 6T4 59L75 197Q98 170 130 157T193 144Q216 144 228 156T240 187Q240 208 224 222T184 251T132 281T79 321T39 382T23 471Q23 510 36 547T77 613T146 660T241 678Q292 678 336 662T412 617L348 481Q326 503 301 512T248 522Q226 522 215 510T203 481Q203 461 219 447T259 419T311 387T363 346T403 286T419 200Q419 153 404 114T361 47T294 4T205 -12Z"  />
<glyph unicode="T" horiz-adv-x="406" d="M115 0V513H18V667H388V513H292V0H115Z"  />
<glyph unicode="U" horiz-adv-x="532" d="M266 -12Q225 -12 185 1T112 41T61 111T41 213V667H218V204Q218 170 230 156T266 142Q288 142 301 156T314 204V667H491V214Q491 155 472 112T420 42T348 1T266 -12Z"  />
<glyph unicode="V" horiz-adv-x="484" d="M140 0L-6 667H175L242 224L309 667H490L343 0H140Z"  />
<glyph unicode="W" horiz-adv-x="684" d="M382 0L342 346L301 0H126L4 667H182L222 305L275 667H409L463 305L502 667H680L558 0H382Z"  />
<glyph unicode="X" horiz-adv-x="509" d="M321 0L254 191L188 0H-6L152 341L2 667H196L254 487L312 667H506L356 342L515 0H321Z"  />
<glyph unicode="Y" horiz-adv-x="489" d="M156 0V269L-7 667H179L244 435L310 667H496L333 269V0H156Z"  />
<glyph unicode="Z" horiz-adv-x="412" d="M26 0V147L179 513H26V667H379V526L222 154H386V0H26Z"  />
<glyph unicode="[" horiz-adv-x="227" d="M36 -190V678H210V577H146V-89H210V-190H36Z"  />
<glyph unicode="\" horiz-adv-x="254" d="M0 687H107L254 -20H147L0 687Z"  />
<glyph unicode="]" horiz-adv-x="227" d="M18 -190V-89H81V577H18V678H192V-190H18Z"  />
<glyph unicode="^" horiz-adv-x="344" d="M216 333L171 543L127 333H19L116 667H229L325 333H216Z"  />
<glyph unicode="_" horiz-adv-x="279" d="M-3 -141V-40H282V-141H-3Z"  />
<glyph unicode="`" horiz-adv-x="209" d="M112 556L0 700H129L209 556H112Z"  />
<glyph unicode="a" horiz-adv-x="453" d="M261 0V47Q253 33 241 23T214 4T183 -8T153 -12Q124 -12 99 -1T55 30T26 80T15 148Q15 186 25 215T55 263T99 293T153 303Q167 303 183 300T214 289T241 272T261 249V291Q261 323 243 342T190 362Q167 362 141 350T89 317L35 427Q53 446 77 459T127 480T179 491T226 495Q266 495 301 486T362 456T403 404T418 331V0H261ZM214 91Q230 91 242 98T261 122V168Q248 200 214 200Q194 200 183 186T171 146Q171 91 214 91Z"  />
<glyph unicode="b" horiz-adv-x="461" d="M193 163Q207 127 234 127Q263 127 274 158T285 242Q285 293 274 324T234 356Q207 356 193 321V163ZM35 0V667H193V429Q208 464 236 479T291 495Q365 495 405 428T446 242Q446 119 406 54T291 -12Q264 -12 237 3T193 54V0H35Z"  />
<glyph unicode="c" horiz-adv-x="371" d="M226 -12Q178 -12 139 6T73 58T31 138T16 242Q16 299 31 345T73 425T139 476T226 495Q272 495 308 482T361 453L316 330Q302 342 289 349T258 356Q221 356 199 325T177 242Q177 190 199 159T258 127Q275 127 288 133T316 153L361 30Q344 13 308 1T226 -12Z"  />
<glyph unicode="d" horiz-adv-x="461" d="M269 0V54Q252 19 225 4T171 -12Q96 -12 56 53T16 242Q16 360 56 427T171 495Q198 495 226 480T269 429V667H426V0H269ZM227 127Q240 127 250 136T269 163V322Q253 356 227 356Q198 356 188 325T177 242Q177 190 187 159T227 127Z"  />
<glyph unicode="e" horiz-adv-x="435" d="M233 -12Q182 -12 142 6T73 58T31 138T16 242Q16 294 29 340T69 421T135 475T225 495Q276 495 313 477T374 425T410 346T422 245V190H167Q168 161 187 138T251 115Q271 115 293 125T332 152L401 62Q368 24 323 6T233 -12ZM273 297Q273 310 271 322T263 345T247 361T220 368Q204 368 194 362T177 345T169 323T167 297H273Z"  />
<glyph unicode="f" horiz-adv-x="275" d="M52 0V346H11V483H52V502Q52 588 91 632T209 677Q238 677 264 670T308 651L275 531Q268 538 262 541T244 544Q210 544 210 502V483H266V346H210V0H52Z"  />
<glyph unicode="g" horiz-adv-x="461" d="M209 -196Q155 -196 114 -184T40 -141L88 -18Q111 -39 136 -51T191 -63Q224 -63 246 -41T269 32V81Q252 46 225 30T171 14Q96 14 56 73T16 254Q16 373 56 434T171 495Q198 495 226 480T269 429V483H426V32Q426 -36 407 -80T357 -150T288 -186T209 -196ZM227 153Q254 153 269 187V322Q254 356 227 356Q198 356 188 331T177 254Q177 203 187 178T227 153Z"  />
<glyph unicode="h" horiz-adv-x="462" d="M269 0V319Q269 356 240 356Q223 356 211 341T193 309V0H35V667H193V425Q200 438 213 450T242 473T277 489T313 495Q375 495 401 464T427 382V0H269Z"  />
<glyph unicode="i" horiz-adv-x="228" d="M114 525Q76 525 50 551T24 615Q24 653 50 679T114 706Q152 706 178 680T204 615Q204 577 178 551T114 525ZM35 0V483H193V0H35Z"  />
<glyph unicode="j" horiz-adv-x="228" d="M114 525Q76 525 50 551T24 615Q24 653 50 679T114 706Q152 706 178 680T204 615Q204 577 178 551T114 525ZM29 -196Q-14 -196 -45 -180L-19 -56Q-10 -63 4 -63Q35 -63 35 -13V483H193V-13Q193 -100 155 -148T29 -196Z"  />
<glyph unicode="k" horiz-adv-x="445" d="M277 0L226 166L193 102V0H35V667H193V305L267 483H441L333 270L450 0H277Z"  />
<glyph unicode="l" horiz-adv-x="228" d="M35 0V667H193V0H35Z"  />
<glyph unicode="m" horiz-adv-x="696" d="M503 0V317Q503 338 496 347T474 356Q456 356 444 340T427 309V0H269V317Q269 334 263 345T240 356Q222 356 210 340T193 309V0H35V483H193V425Q198 436 210 448T239 471T275 488T313 495Q351 495 382 477T422 417Q428 431 441 445T471 470T507 488T547 495Q595 495 627 469T660 380V0H503Z"  />
<glyph unicode="n" horiz-adv-x="462" d="M269 0V317Q269 356 240 356Q223 356 211 341T193 309V0H35V483H193V425Q200 438 213 450T242 473T277 489T313 495Q344 495 365 487T400 463T420 426T427 380V0H269Z"  />
<glyph unicode="o" horiz-adv-x="451" d="M225 -12Q172 -12 133 8T67 64T29 145T16 242Q16 293 28 338T67 419T132 474T225 495Q279 495 318 475T384 419T423 339T436 242Q436 191 423 145T384 64T319 9T225 -12ZM225 127Q253 127 263 158T274 242Q274 294 264 325T225 356Q198 356 188 325T178 242Q178 189 188 158T225 127Z"  />
<glyph unicode="p" horiz-adv-x="461" d="M291 -12Q264 -12 236 3T193 54V-184H35V483H193V429Q210 464 237 479T291 495Q365 495 405 430T446 241Q446 123 406 56T291 -12ZM234 127Q263 127 274 158T285 241Q285 293 274 324T234 356Q206 356 193 323V161Q207 127 234 127Z"  />
<glyph unicode="q" horiz-adv-x="461" d="M227 127Q254 127 269 161V323Q254 356 227 356Q198 356 188 325T177 241Q177 190 187 159T227 127ZM171 -12Q96 -12 56 55T16 241Q16 364 56 429T171 495Q198 495 225 480T269 429V483H426V-184H269V54Q254 18 226 3T171 -12Z"  />
<glyph unicode="r" horiz-adv-x="309" d="M35 0V483H193V425Q199 439 211 452T239 474T269 490T298 496V345Q292 347 286 348T272 349Q253 349 230 338T193 306V0H35Z"  />
<glyph unicode="s" horiz-adv-x="382" d="M186 -12Q121 -12 75 7T4 53L64 161Q84 141 113 126T171 111Q221 111 221 142Q221 154 207 161T170 175T122 192T74 220T37 267T22 341Q22 371 33 399T66 448T123 482T203 495Q251 495 294 478T370 435L310 329Q297 342 269 357T206 372Q189 372 178 365T167 346Q167 335 182 328T220 314T269 296T318 268T356 220T371 147Q371 112 358 83T320 33T262 0T186 -12Z"  />
<glyph unicode="t" horiz-adv-x="282" d="M187 -12Q113 -12 83 23T52 130V346H11V483H52V615H210V483H266V346H210V164Q210 127 232 127Q239 127 245 129T255 135L280 9Q266 0 242 -6T187 -12Z"  />
<glyph unicode="u" horiz-adv-x="462" d="M269 0V56Q262 43 249 31T220 9T185 -6T149 -12Q87 -12 61 19T35 101V483H193V164Q193 127 222 127Q239 127 251 141T269 172V483H427V0H269Z"  />
<glyph unicode="v" horiz-adv-x="435" d="M134 0L-6 483H160L217 198L275 483H441L301 0H134Z"  />
<glyph unicode="w" horiz-adv-x="674" d="M394 0L337 269L280 0H114L-3 483H159L210 210L259 483H405L464 210L514 483H677L560 0H394Z"  />
<glyph unicode="x" horiz-adv-x="418" d="M256 0L209 129L161 0H-6L110 242L-1 483H164L208 356L252 483H418L307 242L423 0H256Z"  />
<glyph unicode="y" horiz-adv-x="435" d="M69 -52Q73 -54 79 -55T89 -57Q103 -57 113 -52T128 -33L136 -9L-6 483H160L217 199L275 483H441L282 -64Q270 -104 255 -129T220 -170T173 -190T113 -196Q99 -196 78 -194T47 -188L69 -52Z"  />
<glyph unicode="z" horiz-adv-x="368" d="M19 0V116L154 346H19V483H345V372L208 137H349V0H19Z"  />
<glyph unicode="{" horiz-adv-x="237" d="M194 -190Q167 -190 142 -180T97 -153T67 -112T55 -59V137Q55 165 42 183T3 202V286Q29 286 42 304T55 351V546Q55 574 66 598T97 640T141 668T194 678H220V577H194Q182 577 174 568T165 546V334Q165 302 155 279T120 244Q145 233 155 210T165 154V-59Q165 -72 173 -80T194 -89H220V-190H194Z"  />
<glyph unicode="|" horiz-adv-x="184" d="M41 -20V687H143V-20H41Z"  />
<glyph unicode="}" horiz-adv-x="237" d="M17 -89H43Q55 -89 63 -81T72 -59V154Q72 186 82 209T117 244Q92 255 82 278T72 334V546Q72 559 64 568T43 577H17V678H43Q70 678 95 668T140 641T170 599T182 546V351Q182 323 195 305T234 286V202Q208 202 195 184T182 137V-59Q182 -88 171 -112T140 -153T96 -180T43 -190H17V-89Z"  />
<glyph unicode="~" horiz-adv-x="437" d="M412 659Q410 622 406 578T388 496T349 432T279 406Q251 406 234 418T206 449T190 490T181 530T173 561T160 574Q153 574 149 567T141 540T135 488T130 405L25 413Q26 450 31 494T50 576T90 641T160 667Q188 667 205 655T233 623T248 583T258 542T266 511T279 498Q286 498 290 505T298 532T303 583T309 667L412 659Z"  />
<glyph unicode="&#xA0;" horiz-adv-x="154" />
<glyph unicode="&#xA1;" horiz-adv-x="270" d="M64 248H205L229 -184H40L64 248ZM39 399Q39 418 46 435T67 466T97 487T135 495Q154 495 171 488T202 467T223 436T231 399Q231 379 224 362T203 331T172 310T135 302Q115 302 98 309T67 330T47 361T39 399Z"  />
<glyph unicode="&#xA2;" horiz-adv-x="371" d="M155 0Q89 23 53 87T16 242Q16 333 52 396T155 483V565H267V492Q299 487 323 476T361 453L316 330Q302 342 289 349T258 356Q221 356 199 325T177 242Q177 190 199 159T258 127Q275 127 288 133T316 153L361 30Q347 17 323 7T267 -9V-100H155V0Z"  />
<glyph unicode="&#xA3;" horiz-adv-x="469" d="M30 378H60Q52 398 48 420T43 469Q43 516 62 554T113 620T184 662T264 677Q299 677 331 668T388 641T432 594T456 528L314 471Q309 503 301 519T274 535Q257 535 246 517T234 467Q234 437 239 417T250 378H317V281H270V268Q270 255 267 240T257 209T242 180T223 157Q243 164 259 164Q275 164 286 161T307 154T327 147T352 144Q376 144 393 151T422 169L463 29Q448 13 413 1T336 -12Q307 -12 287 -6T250 9T218 23T183 30Q140 30 91 -7L45 110Q74 130 94 158T114 217Q114 234 111 250T102 281H30V378Z"  />
<glyph unicode="&#xA4;" horiz-adv-x="491" d="M245 96Q200 96 164 110L97 44L5 135L67 197Q51 226 44 261T36 333Q36 371 43 405T68 469L5 533L97 624L165 555Q201 569 245 569Q289 569 325 555L395 624L486 533L423 470Q456 410 456 333Q456 256 423 196L486 134L395 43L327 110Q290 96 245 96ZM245 229Q274 229 290 257T307 333Q307 381 291 408T245 436Q216 436 200 409T184 333Q184 285 200 257T245 229Z"  />
<glyph unicode="&#xA5;" horiz-adv-x="489" d="M156 0V110H27V204H156V269H27V362H118L-7 667H179L244 435L310 667H496L371 362H458V269H333V204H458V110H333V0H156Z"  />
<glyph unicode="&#xA6;" horiz-adv-x="184" d="M41 -20V296H143V-20H41ZM41 371V687H143V371H41Z"  />
<glyph unicode="&#xA7;" horiz-adv-x="384" d="M371 329Q371 293 353 259T300 202Q338 179 354 149T371 78Q371 44 357 15T318 -35T260 -69T186 -81Q128 -81 81 -64T4 -16L64 88Q71 80 83 71T109 53T139 40T171 34Q199 34 210 46T221 74Q221 91 207 101T170 120T122 140T74 168T37 212T22 280Q22 327 45 357T98 403Q56 427 39 460T22 531Q22 563 34 590T69 636T123 666T192 677Q227 677 254 672T302 659T338 639T368 614L310 520Q260 568 211 568Q190 568 179 559T167 533Q167 518 182 508T220 489T269 469T318 441T356 397T371 329ZM234 289Q234 340 195 358Q175 352 167 339T159 311Q159 290 169 274T209 245Q222 253 228 264T234 289Z"  />
<glyph unicode="&#xA8;" horiz-adv-x="291" d="M319 615Q319 581 296 558T238 535Q205 535 182 558T158 615Q158 649 181 672T238 695Q272 695 295 672T319 615ZM133 615Q133 582 110 559T53 535Q20 535 -3 558T-27 615Q-27 648 -4 671T53 695Q87 695 110 672T133 615Z"  />
<glyph unicode="&#xA9;" horiz-adv-x="778" d="M734 334Q734 263 707 200T633 90T523 16T389 -11Q318 -11 255 16T145 90T71 200T44 334Q44 405 71 468T145 578T255 652T389 679Q460 679 523 652T633 578T707 468T734 334ZM694 334Q694 397 670 452T605 549T508 615T389 639Q326 639 271 615T174 550T108 453T84 334Q84 271 108 216T173 119T270 53T389 29Q452 29 507 53T604 118T670 215T694 334ZM547 193Q520 161 482 143T396 124Q353 124 315 140T249 184T205 250T188 335Q188 381 204 419T249 485T315 528T396 544Q443 544 481 526T545 477L510 442Q490 468 461 484T396 500Q364 500 336 488T286 454T252 402T239 335Q239 299 251 269T285 216T335 181T396 168Q432 168 461 184T511 227L547 193Z"  />
<glyph unicode="&#xAA;" horiz-adv-x="322" d="M181 326V356Q173 343 154 331T106 318Q88 318 71 324T41 342T20 374T12 420Q12 472 40 497T106 522Q135 522 154 511T181 488V515Q181 538 169 551T133 565Q116 565 97 555T64 530L25 602Q37 615 54 623T89 637T125 645T158 648Q186 648 210 642T253 621T282 586T293 534V326H181ZM151 390Q173 390 181 410V438Q172 458 151 458Q138 458 130 450T122 424Q122 406 130 398T151 390Z"  />
<glyph unicode="&#xAB;" horiz-adv-x="446" d="M298 63L208 243L298 420H416L326 243L416 63H298ZM120 63L30 243L120 420H237L147 243L237 63H120Z"  />
<glyph unicode="&#xAC;" horiz-adv-x="388" d="M359 194H262V380H29V473H359V194Z"  />
<glyph unicode="&#xAD;" horiz-adv-x="247" d="M30 176V308H217V176H30Z"  />
<glyph unicode="&#xAE;" horiz-adv-x="494" d="M459 465Q459 421 443 383T398 315T330 270T247 253Q203 253 165 269T97 315T52 382T35 465Q35 509 51 548T97 615T164 660T247 677Q291 677 330 661T397 616T442 548T459 465ZM425 465Q425 502 411 534T373 591T317 629T247 643Q210 643 178 629T121 591T83 535T69 465Q69 428 83 396T121 339T177 301T247 287Q284 287 316 301T373 339T411 395T425 465ZM304 343L241 439H201V343H165V586H264Q295 586 320 566T345 512Q345 492 338 478T320 456T299 444T283 440L348 343H304ZM308 512Q308 532 294 544T264 556H201V470H264Q280 470 294 481T308 512Z"  />
<glyph unicode="&#xAF;" horiz-adv-x="268" d="M0 555V642H268V555H0Z"  />
<glyph unicode="&#xB0;" horiz-adv-x="322" d="M304 534Q304 504 293 478T262 433T216 402T161 391Q131 391 105 402T60 432T29 478T18 534Q18 564 29 590T59 635T105 666T161 677Q190 677 216 666T261 636T292 590T304 534ZM223 534Q223 559 205 577T161 596Q135 596 118 578T100 534Q100 508 117 491T161 473Q186 473 204 490T223 534Z"  />
<glyph unicode="&#xB1;" horiz-adv-x="388" d="M245 291V153H142V291H29V384H142V514H245V384H359V291H245ZM29 9V103H359V9H29Z"  />
<glyph unicode="&#xB2;" horiz-adv-x="322" d="M25 421V505Q82 554 115 585T166 636T189 670T194 696Q194 713 183 724T151 735Q131 735 112 723T78 690L10 760Q37 792 74 809T159 827Q227 827 268 794T309 700Q309 679 302 660T278 618T235 571T170 513H311V421H25Z"  />
<glyph unicode="&#xB3;" horiz-adv-x="322" d="M309 533Q309 506 298 484T267 447T220 423T159 414Q108 414 70 431T10 477L80 548Q94 528 113 517T154 506Q177 506 187 517T197 541Q197 563 182 570T147 578Q138 578 130 578T117 577V668Q121 667 129 667T143 667Q192 667 192 701Q192 718 181 726T151 735Q134 735 114 727T82 698L14 761Q40 795 77 811T159 827Q224 827 263 800T303 717Q303 685 282 659T227 627Q262 622 285 595T309 533Z"  />
<glyph unicode="&#xB4;" horiz-adv-x="209" d="M97 556H0L80 700H209L97 556Z"  />
<glyph unicode="&#xB5;" horiz-adv-x="477" d="M193 -184H35V483H193V164Q193 127 223 127Q239 127 251 141T269 172V483H427V154Q427 143 432 135T449 127Q455 127 463 129L474 -2Q463 -6 445 -9T404 -12Q348 -12 317 9T275 76Q267 37 249 13T211 -12Q203 -12 200 -10T193 -6V-184Z"  />
<glyph unicode="&#xB6;" horiz-adv-x="449" d="M344 -100V594H271V-100H199V323Q163 323 132 336T78 373T41 428T27 495Q27 531 40 562T77 616T132 653T199 667H416V-100H344Z"  />
<glyph unicode="&#xB7;" horiz-adv-x="270" d="M231 244Q231 224 224 207T203 177T172 156T135 148Q115 148 98 155T68 176T47 207T39 244Q39 264 46 281T67 312T98 333T135 341Q154 341 171 334T202 313T223 282T231 244Z"  />
<glyph unicode="&#xB8;" horiz-adv-x="199" d="M95 -198Q68 -198 43 -189T0 -165L27 -108Q42 -121 59 -128T90 -136Q106 -136 115 -129T125 -108Q125 -100 120 -94T107 -88Q94 -88 84 -100L31 -70L61 11H134L108 -49Q116 -44 122 -42T137 -40Q163 -40 181 -59T199 -111Q199 -153 170 -175T95 -198Z"  />
<glyph unicode="&#xB9;" horiz-adv-x="273" d="M122 421V673L69 620L3 688L139 821H239V421H122Z"  />
<glyph unicode="&#xBA;" horiz-adv-x="327" d="M163 318Q127 318 100 331T54 368T26 420T16 483Q16 516 25 546T53 598T99 634T163 648Q200 648 228 635T274 599T302 546T311 483Q311 450 302 421T275 368T228 332T163 318ZM163 407Q184 407 190 426T196 483Q196 520 190 539T163 558Q144 558 138 539T131 483Q131 446 137 427T163 407Z"  />
<glyph unicode="&#xBB;" horiz-adv-x="446" d="M147 63H30L120 243L30 420H147L237 243L147 63ZM326 63H208L298 243L208 420H326L416 243L326 63Z"  />
<glyph unicode="&#xBC;" horiz-adv-x="720" d="M122 267V519L69 466L3 534L139 667H239V267H122ZM679 77V0H562V77H408V165L539 400H679V168H710V77H679ZM562 277L504 168H562V277ZM249 0H189L473 667H534L249 0Z"  />
<glyph unicode="&#xBD;" horiz-adv-x="758" d="M122 267V519L69 466L3 534L139 667H239V267H122ZM462 0V84Q519 133 552 164T603 215T626 249T631 275Q631 292 620 303T588 314Q568 314 549 302T515 269L447 339Q474 371 511 388T596 406Q664 406 705 373T746 279Q746 258 739 239T715 197T672 150T607 92H748V0H462ZM249 0H189L473 667H534L249 0Z"  />
<glyph unicode="&#xBE;" horiz-adv-x="756" d="M715 77V0H598V77H444V165L575 400H715V168H746V77H715ZM598 277L540 168H598V277ZM285 0H225L509 667H570L285 0ZM309 379Q309 352 298 330T267 293T220 269T159 260Q108 260 70 277T10 323L80 394Q94 374 113 363T154 352Q177 352 187 363T197 387Q197 409 182 416T147 424Q138 424 130 424T117 423V514Q121 513 129 513T143 513Q192 513 192 547Q192 564 181 572T151 581Q134 581 114 573T82 544L14 607Q40 641 77 657T159 673Q224 673 263 646T303 563Q303 531 282 505T227 473Q262 468 285 441T309 379Z"  />
<glyph unicode="&#xBF;" horiz-adv-x="304" d="M235 267Q258 233 258 175Q258 137 246 112T219 67T192 30T180 -9Q180 -23 189 -33T213 -44Q237 -44 255 -16L325 -123Q258 -195 166 -195Q88 -195 47 -154T6 -49Q6 -9 23 21T60 79T97 131T114 185Q114 195 111 205T103 223L235 267ZM167 495Q186 495 203 488T234 467T255 436T263 399Q263 379 256 362T235 332T204 311T167 303Q147 303 130 310T100 331T79 362T71 399Q71 418 78 435T99 466T130 487T167 495Z"  />
<glyph unicode="&#xC0;" horiz-adv-x="484" d="M309 0L295 93H188L175 0H-6L140 667H343L490 0H309ZM242 475L209 247H275L242 475ZM197 723L85 867H214L294 723H197Z"  />
<glyph unicode="&#xC1;" horiz-adv-x="484" d="M309 0L295 93H188L175 0H-6L140 667H343L490 0H309ZM242 475L209 247H275L242 475ZM287 723H190L270 867H399L287 723Z"  />
<glyph unicode="&#xC2;" horiz-adv-x="484" d="M289 723L241 802L197 723H113L172 867H310L373 723H289ZM309 0L295 93H188L175 0H-6L140 667H343L490 0H309ZM242 475L209 247H275L242 475Z"  />
<glyph unicode="&#xC3;" horiz-adv-x="484" d="M309 0L295 93H188L175 0H-6L140 667H343L490 0H309ZM242 475L209 247H275L242 475ZM289 721Q270 721 257 729T235 747T217 765T198 774Q187 774 181 763T174 727H100Q100 787 126 824T197 861Q216 861 229 853T251 834T269 816T288 807Q299 807 305 818T312 855H386Q386 795 360 758T289 721Z"  />
<glyph unicode="&#xC4;" horiz-adv-x="484" d="M415 782Q415 748 392 725T334 702Q301 702 278 725T254 782Q254 816 277 839T334 862Q368 862 391 839T415 782ZM229 782Q229 749 206 726T149 702Q116 702 93 725T69 782Q69 815 92 838T149 862Q183 862 206 839T229 782ZM309 0L295 93H188L175 0H-6L140 667H343L490 0H309ZM242 475L209 247H275L242 475Z"  />
<glyph unicode="&#xC5;" horiz-adv-x="484" d="M309 0L295 93H188L175 0H-6L140 667H343L490 0H309ZM242 475L209 247H275L242 475ZM243 687Q223 687 206 694T176 715T156 745T148 782Q148 802 155 819T176 849T206 869T243 877Q282 877 309 850T336 782Q336 762 329 745T309 715T279 695T243 687ZM243 751Q256 751 264 760T273 782Q273 796 265 805T243 814Q230 814 221 805T212 782Q212 769 221 760T243 751Z"  />
<glyph unicode="&#xC6;" horiz-adv-x="659" d="M305 0V93H202L176 0H-4L228 667H640V513H481V415H633V261H481V154H640V0H305ZM305 475L243 247H305V475Z"  />
<glyph unicode="&#xC7;" horiz-adv-x="467" d="M258 -194Q231 -194 206 -185T163 -161L190 -104Q205 -117 222 -124T253 -132Q269 -132 278 -125T288 -104Q288 -96 283 -90T270 -84Q257 -84 247 -96L194 -66L215 -8Q164 1 127 29T66 102T30 205T18 333Q18 409 32 472T77 582T153 653T262 678Q311 678 345 660T401 615T437 555T459 492L320 441Q312 479 300 500T262 522Q225 522 212 471T198 333Q198 247 211 196T262 144Q289 144 302 170T321 237L459 187Q452 158 441 126T410 65T360 15T286 -10L271 -45Q279 -40 285 -38T300 -36Q326 -36 344 -55T362 -107Q362 -149 333 -171T258 -194Z"  />
<glyph unicode="&#xC8;" horiz-adv-x="405" d="M41 0V667H377V513H218V415H370V261H218V154H377V0H41ZM164 723L52 867H181L261 723H164Z"  />
<glyph unicode="&#xC9;" horiz-adv-x="405" d="M254 723H157L237 867H366L254 723ZM41 0V667H377V513H218V415H370V261H218V154H377V0H41Z"  />
<glyph unicode="&#xCA;" horiz-adv-x="405" d="M255 723L207 802L163 723H79L138 867H276L339 723H255ZM41 0V667H377V513H218V415H370V261H218V154H377V0H41Z"  />
<glyph unicode="&#xCB;" horiz-adv-x="405" d="M385 782Q385 748 362 725T304 702Q271 702 248 725T224 782Q224 816 247 839T304 862Q338 862 361 839T385 782ZM199 782Q199 749 176 726T119 702Q86 702 63 725T39 782Q39 815 62 838T119 862Q153 862 176 839T199 782ZM41 0V667H377V513H218V415H370V261H218V154H377V0H41Z"  />
<glyph unicode="&#xCC;" horiz-adv-x="259" d="M41 0V667H218V0H41ZM86 723L-26 867H103L183 723H86Z"  />
<glyph unicode="&#xCD;" horiz-adv-x="259" d="M41 0V667H218V0H41ZM174 723H77L157 867H286L174 723Z"  />
<glyph unicode="&#xCE;" horiz-adv-x="259" d="M176 723L128 802L84 723H0L59 867H197L260 723H176ZM41 0V667H218V0H41Z"  />
<glyph unicode="&#xCF;" horiz-adv-x="259" d="M306 782Q306 748 283 725T225 702Q192 702 169 725T145 782Q145 816 168 839T225 862Q259 862 282 839T306 782ZM120 782Q120 749 97 726T40 702Q7 702 -16 725T-40 782Q-40 815 -17 838T40 862Q74 862 97 839T120 782ZM41 0V667H218V0H41Z"  />
<glyph unicode="&#xD0;" horiz-adv-x="550" d="M67 0V265H11V400H67V667H273Q341 667 390 641T470 570T517 464T532 333Q532 262 518 201T472 96T392 26T274 0H67ZM273 154Q309 154 330 195T352 333Q352 384 347 418T331 474T306 504T273 513H244V400H299V265H244V154H273Z"  />
<glyph unicode="&#xD1;" horiz-adv-x="532" d="M313 721Q294 721 281 729T259 747T241 765T222 774Q211 774 205 763T198 727H124Q124 787 150 824T221 861Q240 861 253 853T275 834T293 816T312 807Q323 807 329 818T336 855H410Q410 795 384 758T313 721ZM326 0L218 277V0H41V667H218L314 407V667H490V0H326Z"  />
<glyph unicode="&#xD2;" horiz-adv-x="522" d="M216 723L104 867H233L313 723H216ZM261 -12Q199 -12 153 13T77 84T33 193T18 333Q18 409 32 472T77 581T153 652T261 678Q323 678 369 653T445 581T489 472T504 333Q504 257 490 194T445 85T369 14T261 -12ZM261 144Q296 144 310 196T324 333Q324 419 310 470T261 522Q226 522 212 471T198 333Q198 248 212 196T261 144Z"  />
<glyph unicode="&#xD3;" horiz-adv-x="522" d="M306 723H209L289 867H418L306 723ZM261 -12Q199 -12 153 13T77 84T33 193T18 333Q18 409 32 472T77 581T153 652T261 678Q323 678 369 653T445 581T489 472T504 333Q504 257 490 194T445 85T369 14T261 -12ZM261 144Q296 144 310 196T324 333Q324 419 310 470T261 522Q226 522 212 471T198 333Q198 248 212 196T261 144Z"  />
<glyph unicode="&#xD4;" horiz-adv-x="522" d="M308 723L260 802L216 723H132L191 867H329L392 723H308ZM261 -12Q199 -12 153 13T77 84T33 193T18 333Q18 409 32 472T77 581T153 652T261 678Q323 678 369 653T445 581T489 472T504 333Q504 257 490 194T445 85T369 14T261 -12ZM261 144Q296 144 310 196T324 333Q324 419 310 470T261 522Q226 522 212 471T198 333Q198 248 212 196T261 144Z"  />
<glyph unicode="&#xD5;" horiz-adv-x="522" d="M261 -12Q199 -12 153 13T77 84T33 193T18 333Q18 409 32 472T77 581T153 652T261 678Q323 678 369 653T445 581T489 472T504 333Q504 257 490 194T445 85T369 14T261 -12ZM261 144Q296 144 310 196T324 333Q324 419 310 470T261 522Q226 522 212 471T198 333Q198 248 212 196T261 144ZM308 721Q289 721 276 729T254 747T236 765T217 774Q206 774 200 763T193 727H119Q119 787 145 824T216 861Q235 861 248 853T270 834T288 816T307 807Q318 807 324 818T331 855H405Q405 795 379 758T308 721Z"  />
<glyph unicode="&#xD6;" horiz-adv-x="522" d="M435 782Q435 748 412 725T354 702Q321 702 298 725T274 782Q274 816 297 839T354 862Q388 862 411 839T435 782ZM249 782Q249 749 226 726T169 702Q136 702 113 725T89 782Q89 815 112 838T169 862Q203 862 226 839T249 782ZM261 -12Q199 -12 153 13T77 84T33 193T18 333Q18 409 32 472T77 581T153 652T261 678Q323 678 369 653T445 581T489 472T504 333Q504 257 490 194T445 85T369 14T261 -12ZM261 144Q296 144 310 196T324 333Q324 419 310 470T261 522Q226 522 212 471T198 333Q198 248 212 196T261 144Z"  />
<glyph unicode="&#xD7;" horiz-adv-x="388" d="M194 268L100 174L33 240L128 334L33 428L100 494L194 400L289 494L355 428L261 334L355 240L289 174L194 268Z"  />
<glyph unicode="&#xD8;" horiz-adv-x="522" d="M261 -12Q190 -12 139 22L127 0H32L78 84Q47 130 33 193T18 333Q18 409 32 472T77 581T153 652T261 678Q332 678 383 644L396 667H491L444 582Q475 536 489 473T504 333Q504 257 490 194T445 85T369 14T261 -12ZM198 305L301 493Q286 522 261 522Q226 522 212 471T198 333V305ZM261 144Q296 144 310 196T324 333Q324 340 324 346T323 360L221 172Q235 144 261 144Z"  />
<glyph unicode="&#xD9;" horiz-adv-x="532" d="M266 -12Q225 -12 185 1T112 41T61 111T41 213V667H218V204Q218 170 230 156T266 142Q288 142 301 156T314 204V667H491V214Q491 155 472 112T420 42T348 1T266 -12ZM221 723L109 867H238L318 723H221Z"  />
<glyph unicode="&#xDA;" horiz-adv-x="532" d="M311 723H214L294 867H423L311 723ZM266 -12Q225 -12 185 1T112 41T61 111T41 213V667H218V204Q218 170 230 156T266 142Q288 142 301 156T314 204V667H491V214Q491 155 472 112T420 42T348 1T266 -12Z"  />
<glyph unicode="&#xDB;" horiz-adv-x="532" d="M314 723L266 802L222 723H138L197 867H335L398 723H314ZM266 -12Q225 -12 185 1T112 41T61 111T41 213V667H218V204Q218 170 230 156T266 142Q288 142 301 156T314 204V667H491V214Q491 155 472 112T420 42T348 1T266 -12Z"  />
<glyph unicode="&#xDC;" horiz-adv-x="532" d="M439 782Q439 748 416 725T358 702Q325 702 302 725T278 782Q278 816 301 839T358 862Q392 862 415 839T439 782ZM253 782Q253 749 230 726T173 702Q140 702 117 725T93 782Q93 815 116 838T173 862Q207 862 230 839T253 782ZM266 -12Q225 -12 185 1T112 41T61 111T41 213V667H218V204Q218 170 230 156T266 142Q288 142 301 156T314 204V667H491V214Q491 155 472 112T420 42T348 1T266 -12Z"  />
<glyph unicode="&#xDD;" horiz-adv-x="489" d="M156 0V269L-7 667H179L244 435L310 667H496L333 269V0H156ZM289 723H192L272 867H401L289 723Z"  />
<glyph unicode="&#xDE;" horiz-adv-x="496" d="M41 0V667H218V566H264Q320 566 361 548T428 499T468 428T481 343Q481 299 468 259T429 188T361 139T264 121H218V0H41ZM244 275Q270 275 286 292T302 343Q302 375 286 393T244 412H218V275H244Z"  />
<glyph unicode="&#xDF;" horiz-adv-x="581" d="M570 147Q570 118 558 90T524 39T469 2T396 -12Q339 -12 299 5T228 53L278 162Q292 146 313 130T362 113Q403 113 403 143Q403 155 391 164T361 182T321 202T281 230T250 272T238 333Q238 369 251 391T281 429T312 459T326 494Q326 513 309 525T265 538Q235 538 215 521T195 461V0H37V461Q37 504 52 543T97 612T169 659T265 677Q308 677 347 665T417 630T466 577T485 513Q485 472 471 447T438 404T406 375T391 347Q391 336 404 329T437 315T480 297T523 268T556 220T570 147Z"  />
<glyph unicode="&#xE0;" horiz-adv-x="453" d="M261 0V47Q253 33 241 23T214 4T183 -8T153 -12Q124 -12 99 -1T55 30T26 80T15 148Q15 186 25 215T55 263T99 293T153 303Q167 303 183 300T214 289T241 272T261 249V291Q261 323 243 342T190 362Q167 362 141 350T89 317L35 427Q53 446 77 459T127 480T179 491T226 495Q266 495 301 486T362 456T403 404T418 331V0H261ZM214 91Q230 91 242 98T261 122V168Q248 200 214 200Q194 200 183 186T171 146Q171 91 214 91ZM181 556L69 700H198L278 556H181Z"  />
<glyph unicode="&#xE1;" horiz-adv-x="453" d="M261 0V47Q253 33 241 23T214 4T183 -8T153 -12Q124 -12 99 -1T55 30T26 80T15 148Q15 186 25 215T55 263T99 293T153 303Q167 303 183 300T214 289T241 272T261 249V291Q261 323 243 342T190 362Q167 362 141 350T89 317L35 427Q53 446 77 459T127 480T179 491T226 495Q266 495 301 486T362 456T403 404T418 331V0H261ZM214 91Q230 91 242 98T261 122V168Q248 200 214 200Q194 200 183 186T171 146Q171 91 214 91ZM271 556H174L254 700H383L271 556Z"  />
<glyph unicode="&#xE2;" horiz-adv-x="453" d="M261 0V47Q253 33 241 23T214 4T183 -8T153 -12Q124 -12 99 -1T55 30T26 80T15 148Q15 186 25 215T55 263T99 293T153 303Q167 303 183 300T214 289T241 272T261 249V291Q261 323 243 342T190 362Q167 362 141 350T89 317L35 427Q53 446 77 459T127 480T179 491T226 495Q266 495 301 486T362 456T403 404T418 331V0H261ZM214 91Q230 91 242 98T261 122V168Q248 200 214 200Q194 200 183 186T171 146Q171 91 214 91ZM277 556L229 635L185 556H101L160 700H298L361 556H277Z"  />
<glyph unicode="&#xE3;" horiz-adv-x="453" d="M261 0V47Q253 33 241 23T214 4T183 -8T153 -12Q124 -12 99 -1T55 30T26 80T15 148Q15 186 25 215T55 263T99 293T153 303Q167 303 183 300T214 289T241 272T261 249V291Q261 323 243 342T190 362Q167 362 141 350T89 317L35 427Q53 446 77 459T127 480T179 491T226 495Q266 495 301 486T362 456T403 404T418 331V0H261ZM214 91Q230 91 242 98T261 122V168Q248 200 214 200Q194 200 183 186T171 146Q171 91 214 91ZM274 554Q255 554 242 562T220 580T202 598T183 607Q172 607 166 596T159 560H85Q85 620 111 657T182 694Q201 694 214 686T236 667T254 649T273 640Q284 640 290 651T297 688H371Q371 628 345 591T274 554Z"  />
<glyph unicode="&#xE4;" horiz-adv-x="453" d="M261 0V47Q253 33 241 23T214 4T183 -8T153 -12Q124 -12 99 -1T55 30T26 80T15 148Q15 186 25 215T55 263T99 293T153 303Q167 303 183 300T214 289T241 272T261 249V291Q261 323 243 342T190 362Q167 362 141 350T89 317L35 427Q53 446 77 459T127 480T179 491T226 495Q266 495 301 486T362 456T403 404T418 331V0H261ZM214 91Q230 91 242 98T261 122V168Q248 200 214 200Q194 200 183 186T171 146Q171 91 214 91ZM403 615Q403 581 380 558T322 535Q289 535 266 558T242 615Q242 649 265 672T322 695Q356 695 379 672T403 615ZM217 615Q217 582 194 559T137 535Q104 535 81 558T57 615Q57 648 80 671T137 695Q171 695 194 672T217 615Z"  />
<glyph unicode="&#xE5;" horiz-adv-x="453" d="M261 0V47Q253 33 241 23T214 4T183 -8T153 -12Q124 -12 99 -1T55 30T26 80T15 148Q15 186 25 215T55 263T99 293T153 303Q167 303 183 300T214 289T241 272T261 249V291Q261 323 243 342T190 362Q167 362 141 350T89 317L35 427Q53 446 77 459T127 480T179 491T226 495Q266 495 301 486T362 456T403 404T418 331V0H261ZM214 91Q230 91 242 98T261 122V168Q248 200 214 200Q194 200 183 186T171 146Q171 91 214 91ZM227 527Q207 527 190 534T160 555T140 585T132 622Q132 642 139 659T160 689T190 709T227 717Q266 717 293 690T320 622Q320 602 313 585T293 555T263 535T227 527ZM227 591Q240 591 248 600T257 622Q257 636 249 645T227 654Q214 654 205 645T196 622Q196 609 205 600T227 591Z"  />
<glyph unicode="&#xE6;" horiz-adv-x="680" d="M411 189Q413 158 432 137T495 115Q516 115 537 125T576 152L646 62Q612 24 567 6T478 -12Q430 -12 398 4T339 57Q312 28 277 8T181 -12Q146 -12 116 -2T64 28T28 77T15 145Q15 183 25 212T55 262T99 292T153 303Q167 303 183 300T214 289T241 272T261 249V291Q261 323 243 342T190 362Q167 362 141 350T89 317L35 427Q53 446 76 459T125 480T173 491T214 495Q263 495 293 482T341 441Q364 467 396 481T476 495Q524 495 560 476T620 424T655 344T667 242V189H411ZM517 297Q517 309 515 322T507 345T491 361T465 368Q448 368 438 362T421 345T413 322T411 297H517ZM261 168Q253 186 241 193T211 200Q190 200 178 187T165 154Q165 130 177 119T211 108Q233 108 247 124T261 159V168Z"  />
<glyph unicode="&#xE7;" horiz-adv-x="371" d="M226 -196Q199 -196 174 -187T131 -163L158 -106Q173 -119 190 -126T221 -134Q237 -134 246 -127T256 -106Q256 -98 251 -92T238 -86Q225 -86 215 -98L162 -68L184 -8Q145 -1 114 20T61 74T28 149T16 242Q16 299 31 345T73 425T139 476T226 495Q272 495 308 482T361 453L316 330Q302 342 289 349T258 356Q221 356 199 325T177 242Q177 190 199 159T258 127Q275 127 288 133T316 153L361 30Q347 16 319 5T255 -10L239 -47Q247 -42 253 -40T268 -38Q294 -38 312 -57T330 -109Q330 -151 301 -173T226 -196Z"  />
<glyph unicode="&#xE8;" horiz-adv-x="435" d="M233 -12Q182 -12 142 6T73 58T31 138T16 242Q16 294 29 340T69 421T135 475T225 495Q276 495 313 477T374 425T410 346T422 245V190H167Q168 161 187 138T251 115Q271 115 293 125T332 152L401 62Q368 24 323 6T233 -12ZM273 297Q273 310 271 322T263 345T247 361T220 368Q204 368 194 362T177 345T169 323T167 297H273ZM180 556L68 700H197L277 556H180Z"  />
<glyph unicode="&#xE9;" horiz-adv-x="435" d="M270 556H173L253 700H382L270 556ZM233 -12Q182 -12 142 6T73 58T31 138T16 242Q16 294 29 340T69 421T135 475T225 495Q276 495 313 477T374 425T410 346T422 245V190H167Q168 161 187 138T251 115Q271 115 293 125T332 152L401 62Q368 24 323 6T233 -12ZM273 297Q273 310 271 322T263 345T247 361T220 368Q204 368 194 362T177 345T169 323T167 297H273Z"  />
<glyph unicode="&#xEA;" horiz-adv-x="435" d="M268 556L220 635L176 556H92L151 700H289L352 556H268ZM233 -12Q182 -12 142 6T73 58T31 138T16 242Q16 294 29 340T69 421T135 475T225 495Q276 495 313 477T374 425T410 346T422 245V190H167Q168 161 187 138T251 115Q271 115 293 125T332 152L401 62Q368 24 323 6T233 -12ZM273 297Q273 310 271 322T263 345T247 361T220 368Q204 368 194 362T177 345T169 323T167 297H273Z"  />
<glyph unicode="&#xEB;" horiz-adv-x="435" d="M394 615Q394 581 371 558T313 535Q280 535 257 558T233 615Q233 649 256 672T313 695Q347 695 370 672T394 615ZM208 615Q208 582 185 559T128 535Q95 535 72 558T48 615Q48 648 71 671T128 695Q162 695 185 672T208 615ZM233 -12Q182 -12 142 6T73 58T31 138T16 242Q16 294 29 340T69 421T135 475T225 495Q276 495 313 477T374 425T410 346T422 245V190H167Q168 161 187 138T251 115Q271 115 293 125T332 152L401 62Q368 24 323 6T233 -12ZM273 297Q273 310 271 322T263 345T247 361T220 368Q204 368 194 362T177 345T169 323T167 297H273Z"  />
<glyph unicode="&#xEC;" horiz-adv-x="228" d="M35 0V483H193V0H35ZM71 556L-41 700H88L168 556H71Z"  />
<glyph unicode="&#xED;" horiz-adv-x="228" d="M159 556H62L142 700H271L159 556ZM35 0V483H193V0H35Z"  />
<glyph unicode="&#xEE;" horiz-adv-x="228" d="M163 556L115 635L71 556H-13L46 700H184L247 556H163ZM35 0V483H193V0H35Z"  />
<glyph unicode="&#xEF;" horiz-adv-x="228" d="M289 615Q289 581 266 558T208 535Q175 535 152 558T128 615Q128 649 151 672T208 695Q242 695 265 672T289 615ZM103 615Q103 582 80 559T23 535Q-10 535 -33 558T-57 615Q-57 648 -34 671T23 695Q57 695 80 672T103 615ZM35 0V483H193V0H35Z"  />
<glyph unicode="&#xF0;" horiz-adv-x="451" d="M122 552L213 592Q205 609 197 624T180 653L317 715Q326 699 334 684T351 652L411 678L440 610L381 583Q407 514 421 440T436 285Q436 144 384 66T225 -12Q172 -12 133 7T67 58T29 132T16 220Q16 266 27 308T58 381T108 431T176 450Q199 450 216 443T245 425T265 401T279 375Q274 410 265 447T242 522L154 483L122 552ZM225 127Q252 127 263 152T274 219Q274 260 263 285T225 311Q199 311 189 286T178 219Q178 178 188 153T225 127Z"  />
<glyph unicode="&#xF1;" horiz-adv-x="462" d="M269 0V317Q269 356 240 356Q223 356 211 341T193 309V0H35V483H193V425Q200 438 213 450T242 473T277 489T313 495Q344 495 365 487T400 463T420 426T427 380V0H269ZM278 554Q259 554 246 562T224 580T206 598T187 607Q176 607 170 596T163 560H89Q89 620 115 657T186 694Q205 694 218 686T240 667T258 649T277 640Q288 640 294 651T301 688H375Q375 628 349 591T278 554Z"  />
<glyph unicode="&#xF2;" horiz-adv-x="451" d="M225 -12Q172 -12 133 8T67 64T29 145T16 242Q16 293 28 338T67 419T132 474T225 495Q279 495 318 475T384 419T423 339T436 242Q436 191 423 145T384 64T319 9T225 -12ZM225 127Q253 127 263 158T274 242Q274 294 264 325T225 356Q198 356 188 325T178 242Q178 189 188 158T225 127ZM180 556L68 700H197L277 556H180Z"  />
<glyph unicode="&#xF3;" horiz-adv-x="451" d="M270 556H173L253 700H382L270 556ZM225 -12Q172 -12 133 8T67 64T29 145T16 242Q16 293 28 338T67 419T132 474T225 495Q279 495 318 475T384 419T423 339T436 242Q436 191 423 145T384 64T319 9T225 -12ZM225 127Q253 127 263 158T274 242Q274 294 264 325T225 356Q198 356 188 325T178 242Q178 189 188 158T225 127Z"  />
<glyph unicode="&#xF4;" horiz-adv-x="451" d="M273 556L225 635L181 556H97L156 700H294L357 556H273ZM225 -12Q172 -12 133 8T67 64T29 145T16 242Q16 293 28 338T67 419T132 474T225 495Q279 495 318 475T384 419T423 339T436 242Q436 191 423 145T384 64T319 9T225 -12ZM225 127Q253 127 263 158T274 242Q274 294 264 325T225 356Q198 356 188 325T178 242Q178 189 188 158T225 127Z"  />
<glyph unicode="&#xF5;" horiz-adv-x="451" d="M225 -12Q172 -12 133 8T67 64T29 145T16 242Q16 293 28 338T67 419T132 474T225 495Q279 495 318 475T384 419T423 339T436 242Q436 191 423 145T384 64T319 9T225 -12ZM225 127Q253 127 263 158T274 242Q274 294 264 325T225 356Q198 356 188 325T178 242Q178 189 188 158T225 127ZM272 554Q253 554 240 562T218 580T200 598T181 607Q170 607 164 596T157 560H83Q83 620 109 657T180 694Q199 694 212 686T234 667T252 649T271 640Q282 640 288 651T295 688H369Q369 628 343 591T272 554Z"  />
<glyph unicode="&#xF6;" horiz-adv-x="451" d="M399 615Q399 581 376 558T318 535Q285 535 262 558T238 615Q238 649 261 672T318 695Q352 695 375 672T399 615ZM213 615Q213 582 190 559T133 535Q100 535 77 558T53 615Q53 648 76 671T133 695Q167 695 190 672T213 615ZM225 -12Q172 -12 133 8T67 64T29 145T16 242Q16 293 28 338T67 419T132 474T225 495Q279 495 318 475T384 419T423 339T436 242Q436 191 423 145T384 64T319 9T225 -12ZM225 127Q253 127 263 158T274 242Q274 294 264 325T225 356Q198 356 188 325T178 242Q178 189 188 158T225 127Z"  />
<glyph unicode="&#xF7;" horiz-adv-x="374" d="M257 485Q257 456 237 436T187 415Q158 415 138 435T118 485Q118 514 138 534T187 554Q216 554 236 534T257 485ZM29 291V384H345V291H29ZM257 190Q257 161 237 141T187 120Q158 120 138 140T118 190Q118 219 138 239T187 259Q216 259 236 239T257 190Z"  />
<glyph unicode="&#xF8;" horiz-adv-x="451" d="M21 0L66 66Q40 101 28 146T16 242Q16 293 28 338T67 419T132 474T225 495Q258 495 285 487T336 464L349 483H430L385 417Q411 382 423 337T436 242Q436 191 423 145T384 64T319 9T225 -12Q192 -12 165 -4T115 18L103 0H21ZM225 127Q253 127 263 158T274 242V252L198 140Q208 127 225 127ZM178 231L253 342Q242 356 225 356Q198 356 188 325T178 242V231Z"  />
<glyph unicode="&#xF9;" horiz-adv-x="462" d="M269 0V56Q262 43 249 31T220 9T185 -6T149 -12Q87 -12 61 19T35 101V483H193V164Q193 127 222 127Q239 127 251 141T269 172V483H427V0H269ZM186 556L74 700H203L283 556H186Z"  />
<glyph unicode="&#xFA;" horiz-adv-x="462" d="M276 556H179L259 700H388L276 556ZM269 0V56Q262 43 249 31T220 9T185 -6T149 -12Q87 -12 61 19T35 101V483H193V164Q193 127 222 127Q239 127 251 141T269 172V483H427V0H269Z"  />
<glyph unicode="&#xFB;" horiz-adv-x="462" d="M278 556L230 635L186 556H102L161 700H299L362 556H278ZM269 0V56Q262 43 249 31T220 9T185 -6T149 -12Q87 -12 61 19T35 101V483H193V164Q193 127 222 127Q239 127 251 141T269 172V483H427V0H269Z"  />
<glyph unicode="&#xFC;" horiz-adv-x="462" d="M405 615Q405 581 382 558T324 535Q291 535 268 558T244 615Q244 649 267 672T324 695Q358 695 381 672T405 615ZM219 615Q219 582 196 559T139 535Q106 535 83 558T59 615Q59 648 82 671T139 695Q173 695 196 672T219 615ZM269 0V56Q262 43 249 31T220 9T185 -6T149 -12Q87 -12 61 19T35 101V483H193V164Q193 127 222 127Q239 127 251 141T269 172V483H427V0H269Z"  />
<glyph unicode="&#xFD;" horiz-adv-x="435" d="M69 -52Q73 -54 79 -55T89 -57Q103 -57 113 -52T128 -33L136 -9L-6 483H160L217 199L275 483H441L282 -64Q270 -104 255 -129T220 -170T173 -190T113 -196Q99 -196 78 -194T47 -188L69 -52ZM262 556H165L245 700H374L262 556Z"  />
<glyph unicode="&#xFE;" horiz-adv-x="461" d="M291 -12Q264 -12 236 3T193 53V-184H35V667H193V430Q210 465 236 480T291 495Q365 495 405 430T446 241Q446 123 406 56T291 -12ZM234 127Q263 127 274 158T285 241Q285 293 274 324T234 356Q206 356 193 323V161Q207 127 234 127Z"  />
<glyph unicode="&#xFF;" horiz-adv-x="435" d="M69 -52Q73 -54 79 -55T89 -57Q103 -57 113 -52T128 -33L136 -9L-6 483H160L217 199L275 483H441L282 -64Q270 -104 255 -129T220 -170T173 -190T113 -196Q99 -196 78 -194T47 -188L69 -52ZM391 615Q391 581 368 558T310 535Q277 535 254 558T230 615Q230 649 253 672T310 695Q344 695 367 672T391 615ZM205 615Q205 582 182 559T125 535Q92 535 69 558T45 615Q45 648 68 671T125 695Q159 695 182 672T205 615Z"  />
<glyph unicode="&#x110;" horiz-adv-x="550" d="M67 0V265H11V400H67V667H273Q341 667 390 641T470 570T517 464T532 333Q532 262 518 201T472 96T392 26T274 0H67ZM273 154Q309 154 330 195T352 333Q352 384 347 418T331 474T306 504T273 513H244V400H299V265H244V154H273Z"  />
<glyph unicode="&#x131;" horiz-adv-x="228" d="M35 0V483H193V0H35Z"  />
<glyph unicode="&#x152;" horiz-adv-x="671" d="M317 0V34Q303 13 276 1T222 -12Q169 -12 131 13T68 84T30 193T18 333Q18 409 30 472T67 580T131 651T222 677Q248 677 275 665T317 633V667H652V513H493V415H645V261H493V154H652V0H317ZM317 463Q308 495 293 508T262 521Q244 521 232 508T212 470T201 411T198 333Q198 291 201 256T211 196T231 158T262 144Q277 144 292 158T317 204V463Z"  />
<glyph unicode="&#x153;" horiz-adv-x="693" d="M425 189Q427 160 445 138T509 115Q529 115 550 125T590 152L659 62Q626 24 581 6T491 -12Q443 -12 412 5T355 55Q307 -12 225 -12Q172 -12 133 8T67 64T29 145T16 242Q16 293 28 338T67 419T132 474T225 495Q307 495 355 429Q403 495 483 495Q534 495 571 476T632 424T668 344T680 242V189H425ZM531 297Q531 309 529 322T521 345T505 361T478 368Q462 368 452 362T435 345T427 322T425 297H531ZM274 242Q274 294 264 325T225 356Q197 356 188 325T178 242Q178 189 187 158T225 127Q254 127 264 158T274 242Z"  />
<glyph unicode="&#x160;" horiz-adv-x="437" d="M174 723L112 867H196L243 788L288 867H372L312 723H174ZM205 -12Q139 -12 91 6T4 59L75 197Q98 170 130 157T193 144Q216 144 228 156T240 187Q240 208 224 222T184 251T132 281T79 321T39 382T23 471Q23 510 36 547T77 613T146 660T241 678Q292 678 336 662T412 617L348 481Q326 503 301 512T248 522Q226 522 215 510T203 481Q203 461 219 447T259 419T311 387T363 346T403 286T419 200Q419 153 404 114T361 47T294 4T205 -12Z"  />
<glyph unicode="&#x161;" horiz-adv-x="382" d="M127 556L65 700H149L196 621L241 700H325L265 556H127ZM186 -12Q121 -12 75 7T4 53L64 161Q84 141 113 126T171 111Q221 111 221 142Q221 154 207 161T170 175T122 192T74 220T37 267T22 341Q22 371 33 399T66 448T123 482T203 495Q251 495 294 478T370 435L310 329Q297 342 269 357T206 372Q189 372 178 365T167 346Q167 335 182 328T220 314T269 296T318 268T356 220T371 147Q371 112 358 83T320 33T262 0T186 -12Z"  />
<glyph unicode="&#x178;" horiz-adv-x="489" d="M418 782Q418 748 395 725T337 702Q304 702 281 725T257 782Q257 816 280 839T337 862Q371 862 394 839T418 782ZM232 782Q232 749 209 726T152 702Q119 702 96 725T72 782Q72 815 95 838T152 862Q186 862 209 839T232 782ZM156 0V269L-7 667H179L244 435L310 667H496L333 269V0H156Z"  />
<glyph unicode="&#x17D;" horiz-adv-x="412" d="M138 723L76 867H160L207 788L252 867H336L276 723H138ZM26 0V147L179 513H26V667H379V526L222 154H386V0H26Z"  />
<glyph unicode="&#x17E;" horiz-adv-x="368" d="M113 556L51 700H135L182 621L227 700H311L251 556H113ZM19 0V116L154 346H19V483H345V372L208 137H349V0H19Z"  />
<glyph unicode="&#x192;" horiz-adv-x="431" d="M5 -161L90 230H53V367H121L155 525Q163 559 181 587T225 635T282 666T345 677Q366 677 392 673T441 655L399 513Q388 523 371 523Q354 523 343 511T326 477L302 367H369V230H271L184 -161H5Z"  />
<glyph unicode="&#x2C6;" horiz-adv-x="260" d="M176 556L128 635L84 556H0L59 700H197L260 556H176Z"  />
<glyph unicode="&#x2C7;" horiz-adv-x="260" d="M62 556L0 700H84L131 621L176 700H260L200 556H62Z"  />
<glyph unicode="&#x2DA;" horiz-adv-x="188" d="M95 527Q75 527 58 534T28 555T8 585T0 622Q0 642 7 659T28 689T58 709T95 717Q134 717 161 690T188 622Q188 602 181 585T161 555T131 535T95 527ZM95 591Q108 591 116 600T125 622Q125 636 117 645T95 654Q82 654 73 645T64 622Q64 609 73 600T95 591Z"  />
<glyph unicode="&#x2DC;" horiz-adv-x="286" d="M189 554Q170 554 157 562T135 580T117 598T98 607Q87 607 81 596T74 560H0Q0 620 26 657T97 694Q116 694 129 686T151 667T169 649T188 640Q199 640 205 651T212 688H286Q286 628 260 591T189 554Z"  />
<glyph unicode="&#x2013;" horiz-adv-x="460" d="M30 176V308H430V176H30Z"  />
<glyph unicode="&#x2014;" horiz-adv-x="640" d="M30 176V308H610V176H30Z"  />
<glyph unicode="&#x2018;" horiz-adv-x="273" d="M33 474Q33 536 64 588T149 678L214 625Q202 619 189 609T164 585T143 558T129 530Q132 531 138 532T152 533Q185 533 208 510T231 449Q231 429 224 412T203 383T174 363T138 355Q117 355 98 363T65 386T42 424T33 474Z"  />
<glyph unicode="&#x2019;" horiz-adv-x="273" d="M237 559Q237 496 206 444T121 354L56 407Q68 413 81 423T106 447T127 474T141 502Q138 501 132 500T118 499Q86 499 63 522T40 583Q40 602 47 619T67 649T97 669T133 677Q154 677 172 669T205 646T228 609T237 559Z"  />
<glyph unicode="&#x201A;" horiz-adv-x="270" d="M236 62Q236 -1 205 -53T120 -143L55 -90Q67 -84 80 -74T105 -50T126 -23T140 6Q132 2 117 2Q85 2 62 25T39 86Q39 105 46 122T66 152T96 172T132 180Q153 180 171 172T204 149T227 112T236 62Z"  />
<glyph unicode="&#x201C;" horiz-adv-x="502" d="M36 474Q36 536 67 588T152 678L217 625Q205 619 192 609T167 585T146 558T132 530Q135 531 141 532T155 533Q188 533 211 510T234 449Q234 429 227 412T206 383T177 363T141 355Q120 355 101 363T68 386T45 424T36 474ZM265 474Q265 536 295 588T380 678L446 625Q434 619 421 609T395 585T374 558T360 530Q364 531 370 532T384 533Q416 533 439 510T462 449Q462 429 455 412T435 383T405 363T369 355Q348 355 330 363T297 386T274 424T265 474Z"  />
<glyph unicode="&#x201D;" horiz-adv-x="502" d="M465 559Q465 496 435 444T350 354L285 407Q297 413 310 423T335 447T356 474T370 502Q367 501 361 500T347 499Q314 499 291 522T268 583Q268 602 275 619T295 649T325 669T361 677Q382 677 400 669T433 646T456 609T465 559ZM237 559Q237 496 206 444T121 354L56 407Q68 413 81 423T106 447T127 474T141 502Q138 501 132 500T118 499Q86 499 63 522T40 583Q40 602 47 619T67 649T97 669T133 677Q154 677 172 669T205 646T228 609T237 559Z"  />
<glyph unicode="&#x201E;" horiz-adv-x="498" d="M236 62Q236 -1 205 -53T120 -143L55 -90Q67 -84 80 -74T105 -50T126 -23T140 6Q132 2 117 2Q85 2 62 25T39 86Q39 105 46 122T66 152T96 172T132 180Q153 180 171 172T204 149T227 112T236 62ZM464 62Q464 -1 434 -53T349 -143L284 -90Q296 -84 309 -74T334 -50T355 -23T369 6Q361 2 346 2Q313 2 290 25T267 86Q267 105 274 122T294 152T324 172T360 180Q381 180 399 172T432 149T455 112T464 62Z"  />
<glyph unicode="&#x2020;" horiz-adv-x="285" d="M178 521L182 327H102L107 521L18 517V590L107 587L102 677H182L178 587L267 590V517L178 521Z"  />
<glyph unicode="&#x2021;" horiz-adv-x="285" d="M267 517L178 521V338L267 342V269L178 272L182 180H102L106 272L18 269V342L106 338V521L18 517V590L106 587L102 677H182L178 587L267 590V517Z"  />
<glyph unicode="&#x2022;" horiz-adv-x="358" d="M305 242Q305 216 295 194T268 155T229 128T180 118Q154 118 132 128T92 154T65 193T55 242Q55 268 65 290T92 330T131 357T180 367Q206 367 228 357T268 330T295 291T305 242Z"  />
<glyph unicode="&#x2026;" horiz-adv-x="810" d="M231 83Q231 63 224 46T203 16T172 -4T135 -12Q115 -12 98 -5T68 16T47 46T39 83Q39 103 46 120T67 151T98 172T135 180Q154 180 171 173T202 152T223 121T231 83ZM501 83Q501 63 494 46T473 16T442 -4T405 -12Q385 -12 368 -5T338 16T317 46T309 83Q309 103 316 120T337 151T368 172T405 180Q424 180 441 173T472 152T493 121T501 83ZM771 83Q771 63 764 46T743 16T713 -4T675 -12Q655 -12 638 -5T608 16T587 46T579 83Q579 103 586 120T607 151T638 172T675 180Q695 180 712 173T743 152T763 121T771 83Z"  />
<glyph unicode="&#x2030;" horiz-adv-x="893" d="M289 509Q289 474 280 444T252 391T209 355T151 342Q119 342 94 355T50 390T22 443T12 509Q12 544 22 575T50 628T93 664T151 677Q183 677 208 664T252 629T279 575T289 509ZM190 0H130L414 667H475L190 0ZM592 154Q592 119 583 89T555 37T512 1T454 -12Q422 -12 396 1T352 36T325 89T315 154Q315 189 324 220T352 273T396 309T454 322Q486 322 511 309T555 274T582 220T592 154ZM191 509Q191 546 180 564T151 583Q133 583 122 565T111 509Q111 473 122 455T151 437Q169 437 180 455T191 509ZM494 154Q494 192 483 209T454 227Q436 227 425 210T414 154Q414 119 425 101T454 82Q472 82 483 100T494 154ZM881 154Q881 119 872 89T844 37T801 1T743 -12Q711 -12 686 1T642 36T614 89T604 154Q604 189 614 220T642 273T685 309T743 322Q775 322 800 309T844 274T871 220T881 154ZM783 154Q783 192 772 209T743 227Q725 227 714 210T703 154Q703 119 714 101T743 82Q761 82 772 100T783 154Z"  />
<glyph unicode="&#x2039;" horiz-adv-x="267" d="M120 63L30 243L120 420H237L147 243L237 63H120Z"  />
<glyph unicode="&#x203A;" horiz-adv-x="267" d="M147 63H30L120 243L30 420H147L237 243L147 63Z"  />
<glyph unicode="&#x2044;" horiz-adv-x="151" d="M-37 0H-97L187 667H248L-37 0Z"  />
<glyph unicode="&#x20AC;" horiz-adv-x="488" d="M283 -12Q182 -12 125 50T48 218H13V312H39V357H13V451H49Q59 503 78 545T126 616T194 662T283 678Q332 678 366 660T422 615T458 555T480 492L341 441Q333 479 321 500T283 522Q261 522 248 504T228 451H304V357H219V312H304V218H227Q234 183 247 164T283 144Q310 144 323 170T342 237L480 187Q473 157 461 122T426 57T369 8T283 -12Z"  />
<glyph unicode="&#x2122;" horiz-adv-x="374" d="M311 447V629L256 447H248L193 629V447H165V667H208L252 510L296 667H339V447H311ZM87 641V447H59V641H17V667H129V641H87Z"  />
<glyph unicode="&#xF656;" horiz-adv-x="273" d="M122 0V252L69 199L3 267L139 400H239V0H122Z"  />
<glyph unicode="&#xF657;" horiz-adv-x="322" d="M25 0V84Q82 133 115 164T166 215T189 249T194 275Q194 292 183 303T151 314Q131 314 112 302T78 269L10 339Q37 371 74 388T159 406Q227 406 268 373T309 279Q309 258 302 239T278 197T235 150T170 92H311V0H25Z"  />
<glyph unicode="&#xF658;" horiz-adv-x="322" d="M309 112Q309 85 298 63T267 26T220 2T159 -7Q108 -7 70 10T10 56L80 127Q94 107 113 96T154 85Q177 85 187 96T197 120Q197 142 182 149T147 157Q138 157 130 157T117 156V247Q121 246 129 246T143 246Q192 246 192 280Q192 297 181 305T151 314Q134 314 114 306T82 277L14 340Q40 374 77 390T159 406Q224 406 263 379T303 296Q303 264 282 238T227 206Q262 201 285 174T309 112Z"  />
<glyph unicode="&#xF659;" horiz-adv-x="322" d="M281 77V0H164V77H10V165L141 400H281V168H312V77H281ZM164 277L106 168H164V277Z"  />


</font>
</defs>
</svg>
